# xmcd
#
# Track frame offsets:
#	150
#	20628
#	38497
#	57941
#	77566
#	99802
#	118907
#	139365
#	156410
#	172847
#	191444
#	216528
#	233556
#	258319
#
# Disc length: 3772 seconds
#
# Revision: 0
# Processed by: cddbd v1.4PL0 Copyright (c) Steve Scherf et al.
# Submitted via: dBpowerAMP V4.0
#
DISCID=b80eba0e
DTITLE=Elkie Brooks - Greatest Hits
DYEAR=1900
DGENRE=
TTITLE0=Only women bleed
TTITLE1=Pearl's a singer
TTITLE2=nights in white satin
TTITLE3=Stairway to heaven
TTITLE4=From the heart
TTITLE5=Foolish games
TTITLE6=May you never
TTITLE7=one of a kind
TTITLE8=You are so beautiful
TTITLE9=Sail on
TTITLE10=Only love can break your heart
TTITLE11=The sunshine after the rain
TTITLE12=Fool if you think it's over
TTITLE13=Lilac wine
EXTD=
EXTT0=
EXTT1=
EXTT2=
EXTT3=
EXTT4=
EXTT5=
EXTT6=
EXTT7=
EXTT8=
EXTT9=
EXTT10=
EXTT11=
EXTT12=
EXTT13=
PLAYORDER=
